<svg width="492" height="368" viewBox="0 0 492 368" xmlns="http://www.w3.org/2000/svg" xmlns:xlink="http://www.w3.org/1999/xlink"><title>Artboard Copy</title><defs><linearGradient x1="50%" y1="0%" x2="50%" y2="100%" id="a"><stop stop-color="#3B393C" offset="0%"/><stop stop-color="#272627" offset="100%"/></linearGradient><rect id="b" x="18.983" y="31.639" width="454" height="304" rx="14"/><filter x="-1.3%" y="-2%" width="102.6%" height="103.9%" filterUnits="objectBoundingBox" id="c"><feOffset dy="-11" in="SourceAlpha" result="shadowOffsetInner1"/><feComposite in="shadowOffsetInner1" in2="SourceAlpha" operator="arithmetic" k2="-1" k3="1" result="shadowInnerInner1"/><feColorMatrix values="0 0 0 0 0 0 0 0 0 0 0 0 0 0 0 0 0 0 0.227553216 0" in="shadowInnerInner1" result="shadowMatrixInner1"/><feGaussianBlur stdDeviation="6" in="SourceAlpha" result="shadowBlurInner2"/><feOffset in="shadowBlurInner2" result="shadowOffsetInner2"/><feComposite in="shadowOffsetInner2" in2="SourceAlpha" operator="arithmetic" k2="-1" k3="1" result="shadowInnerInner2"/><feColorMatrix values="0 0 0 0 0 0 0 0 0 0 0 0 0 0 0 0 0 0 0.138275589 0" in="shadowInnerInner2" result="shadowMatrixInner2"/><feMerge><feMergeNode in="shadowMatrixInner1"/><feMergeNode in="shadowMatrixInner2"/></feMerge></filter><linearGradient x1="50%" y1="0%" x2="50%" y2="100%" id="d"><stop stop-color="#58B1EB" offset="0%"/><stop stop-color="#006DB2" offset="100%"/></linearGradient><path d="M103.937 274.525V144.15c0-5.65-.76-10.684-2.282-15.102-1.521-4.419-3.404-8.185-5.65-11.3-2.245-3.114-4.744-5.685-7.496-7.713-2.753-2.028-5.433-3.622-8.04-4.78l-.435-7.389c4.636-7.533 11.59-13.943 20.86-19.23 9.272-5.288 20.498-7.931 33.68-7.931 9.127 0 16.769.724 22.925 2.173 6.157 1.448 11.915 3.186 17.275 5.215l-4.563 22.815c-5.94-2.897-11.661-4.925-17.166-6.084-5.505-1.159-11.227-1.738-17.166-1.738-6.954 0-12.64 1.014-17.058 3.042-4.418 2.028-7.931 4.273-10.539 6.736 7.388 4.346 13.255 9.995 17.601 16.949 4.346 6.953 6.519 15.645 6.519 26.075v128.637h-28.465zm85.613-53.888c1.738-3.332 4.454-6.157 8.148-8.475 3.694-2.318 8.656-3.476 14.885-3.476h12.168v23.467h-12.82c-6.664 0-11.734 1.304-15.21 3.911-3.477 2.608-5.867 6.23-7.171 10.865v27.596h-28.248v-75.618c0-6.808 1.267-13.182 3.803-19.121 2.535-5.94 6.156-11.082 10.864-15.428 4.708-4.346 10.466-7.787 17.275-10.322 6.809-2.535 14.559-3.802 23.25-3.802 8.692 0 16.442 1.267 23.25 3.802 6.81 2.535 12.567 5.976 17.275 10.322 4.708 4.346 8.33 9.488 10.865 15.428 2.535 5.939 3.803 12.313 3.803 19.121v75.618h-28.248v-75.4c0-7.533-2.318-13.798-6.954-18.796-4.635-4.998-11.299-7.497-19.99-7.497-8.692 0-15.356 2.5-19.992 7.497-4.635 4.998-6.953 11.263-6.953 18.796v21.512zm58.234-107.995c0 2.173 1.014 3.26 3.043 3.26h25.423v21.729h-38.678c-3.332 0-6.048-.942-8.149-2.825-2.1-1.883-3.15-4.49-3.15-7.823v-5.432c0-2.173-1.015-3.26-3.043-3.26h-12.82v-22.38h23.25c4.346 0 7.787.977 10.322 2.933 2.535 1.956 3.802 5.034 3.802 9.235v4.563zM383.81 274.525v-73.662c0-8.547-2.499-15.355-7.497-20.426-4.998-5.07-11.842-7.605-20.534-7.605-10.575 0-18.723 3.803-24.445 11.408-5.722 7.605-8.583 17.927-8.583 30.964 0 7.243.76 13.291 2.281 18.144 1.521 4.853 3.513 8.8 5.976 11.843 2.462 3.042 5.178 5.215 8.148 6.519 2.97 1.303 5.903 1.955 8.8 1.955 2.898 0 5.614-.217 8.149-.652 2.535-.434 5.251-1.303 8.148-2.607l4.998 20.425c-3.042 1.884-6.41 3.26-10.104 4.129-3.694.869-8.293 1.304-13.798 1.304a51.256 51.256 0 0 1-18.905-3.586c-6.084-2.39-11.516-6.084-16.296-11.082-4.78-4.997-8.584-11.335-11.408-19.013-2.825-7.677-4.238-16.804-4.238-27.379 0-9.126 1.34-17.637 4.02-25.532 2.68-7.895 6.555-14.775 11.626-20.642 5.07-5.867 11.371-10.467 18.904-13.799 7.533-3.331 16.224-4.997 26.075-4.997 9.271 0 17.456 1.304 24.554 3.911 7.099 2.608 13.038 6.193 17.818 10.756 4.78 4.563 8.402 9.96 10.865 16.188 2.463 6.23 3.694 12.893 3.694 19.991v73.445H383.81z" id="e"/><filter x="-.3%" y="-.5%" width="100.6%" height="101%" filterUnits="objectBoundingBox" id="f"><feGaussianBlur stdDeviation=".5" in="SourceAlpha" result="shadowBlurInner1"/><feOffset dy="1" in="shadowBlurInner1" result="shadowOffsetInner1"/><feComposite in="shadowOffsetInner1" in2="SourceAlpha" operator="arithmetic" k2="-1" k3="1" result="shadowInnerInner1"/><feColorMatrix values="0 0 0 0 1 0 0 0 0 1 0 0 0 0 1 0 0 0 0.5 0" in="shadowInnerInner1"/></filter></defs><g fill="none" fill-rule="evenodd"><g transform="rotate(-9 245.983 183.64)"><use fill="url(#a)" xlink:href="#b"/><use fill="#000" filter="url(#c)" xlink:href="#b"/></g><g transform="rotate(-9 246.046 173.484)"><use fill="url(#d)" xlink:href="#e"/><use fill="#000" filter="url(#f)" xlink:href="#e"/></g></g></svg>